<?xml version="1.0" encoding="utf-8"?>
<!-- Generator: Adobe Illustrator 26.3.1, SVG Export Plug-In . SVG Version: 6.00 Build 0)  -->
<svg version="1.1" id="Layer_1" xmlns="http://www.w3.org/2000/svg" xmlns:xlink="http://www.w3.org/1999/xlink" x="0px" y="0px"
	 viewBox="0 0 34 35" style="enable-background:new 0 0 34 35;" xml:space="preserve">
<style type="text/css">
	.st0{fill:#A9A9A9;}
</style>
<path class="st0" d="M31.7,0.9H2.3C1.6,0.9,1,1.5,1,2.3v30.5c0,0.7,0.6,1.3,1.3,1.3h29.4c0.7,0,1.3-0.6,1.3-1.3V2.3
	C33,1.5,32.4,0.9,31.7,0.9z M28,10.6h-2.5c-2,0-2.4,1-2.4,2.4v3.2h4.8l-0.6,5h-4.1v12.8h-5V21.2h-4.2v-5h4.2v-3.7
	c0-4.3,2.5-6.6,6.2-6.6c1.8,0,3.3,0.1,3.7,0.2L28,10.6L28,10.6z"/>
</svg>
