<svg width="33" height="33" viewBox="0 0 33 33" fill="none" xmlns="http://www.w3.org/2000/svg">
<path d="M22.6865 0H10.3133C4.61348 0 0 4.61357 0 10.3134V22.6866C0 28.3864 4.61348 33 10.3133 33H22.6865C28.3863 33 32.9998 28.3864 32.9998 22.6866V10.3134C32.9998 4.62767 28.3722 0 22.6865 0ZM29.91 22.6866C29.91 26.6793 26.6792 29.9103 22.6865 29.9103H10.3133C6.33472 29.9103 3.10388 26.6793 3.08977 22.6866V10.3134C3.08977 6.3348 6.32061 3.10379 10.3133 3.08968H22.6865C26.6792 3.08968 29.91 6.3207 29.91 10.3134V22.6866Z" fill="#A9A9A9"/>
<path d="M16.4888 8.24951C11.9318 8.24951 8.23535 11.9461 8.23535 16.5031C8.23535 21.0602 11.9318 24.7567 16.4888 24.7567C21.0459 24.7567 24.7423 21.0602 24.7423 16.5031C24.7423 11.9461 21.0459 8.24951 16.4888 8.24951ZM16.4888 21.6526C13.6389 21.6526 11.3392 19.3389 11.3392 16.5031C11.3392 13.6673 13.653 11.3537 16.4888 11.3537C19.3387 11.3537 21.6384 13.6673 21.6384 16.5031C21.6384 19.353 19.3387 21.6526 16.4888 21.6526Z" fill="#A9A9A9"/>
<path d="M25.368 8.73147C25.9758 8.73147 26.4685 8.23839 26.4685 7.63062C26.4685 7.02285 25.9758 6.53046 25.368 6.53046C24.7603 6.53046 24.2676 7.02285 24.2676 7.63062C24.2676 8.23839 24.7603 8.73147 25.368 8.73147Z" fill="#A9A9A9"/>
</svg>
