<?xml version="1.0" standalone="no"?>
<!DOCTYPE svg PUBLIC "-//W3C//DTD SVG 20010904//EN"
 "http://www.w3.org/TR/2001/REC-SVG-20010904/DTD/svg10.dtd">
<svg version="1.0" xmlns="http://www.w3.org/2000/svg"
 width="300.000000pt" height="300.000000pt" viewBox="0 0 300.000000 300.000000"
 preserveAspectRatio="xMidYMid meet">
<metadata>
Created by potrace 1.14, written by Peter Selinger 2001-2017
</metadata>
<g transform="translate(0.000000,300.000000) scale(0.100000,-0.100000)"
fill="#000000" stroke="none">
<path d="M1900 2803 c-14 -9 -27 -20 -30 -23 -3 -3 -50 -42 -105 -85 -55 -44
-108 -88 -117 -99 -10 -10 -18 -15 -18 -10 0 5 -4 4 -8 -2 -4 -6 -59 -52 -122
-104 -63 -52 -118 -98 -122 -104 -4 -6 -8 -8 -8 -4 0 6 -37 -25 -105 -87 -34
-31 -110 -135 -99 -135 4 0 2 -6 -4 -12 -15 -18 -34 -96 -36 -145 -1 -23 -5
-45 -8 -49 -4 -4 -3 -15 3 -25 5 -11 8 -19 5 -19 -9 0 25 -101 46 -138 41 -74
135 -182 158 -182 5 0 14 -8 19 -17 6 -10 11 -15 11 -11 0 4 13 -5 28 -20 16
-15 43 -38 62 -52 18 -14 38 -30 44 -35 6 -6 36 -30 66 -55 57 -46 64 -54 58
-67 -4 -9 -48 -11 -48 -1 0 16 -50 -16 -56 -35 -13 -40 22 -53 135 -51 64 1
101 -2 101 -9 0 -6 3 -8 6 -4 11 10 34 -21 31 -41 -6 -43 -30 -52 -139 -53
-57 -1 -111 -6 -120 -11 -28 -14 -23 -56 7 -64 14 -3 25 -11 25 -18 0 -7 3 -7
8 -1 10 14 65 16 74 2 5 -8 8 -8 8 -1 0 5 22 10 50 11 27 0 47 -4 44 -8 -3 -5
1 -6 9 -4 7 3 19 -5 27 -20 12 -23 11 -28 -7 -52 -18 -26 -25 -27 -99 -28 -43
0 -84 3 -91 8 -6 4 -14 3 -18 -3 -3 -6 -11 -8 -16 -4 -12 7 -38 -25 -39 -47 0
-20 23 -32 65 -35 17 -1 36 -2 43 -3 8 0 -28 -35 -80 -77 -51 -42 -104 -85
-118 -97 -14 -12 -26 -21 -27 -20 -1 1 -19 -13 -40 -32 -21 -18 -67 -57 -103
-87 -72 -60 -121 -130 -125 -180 -2 -18 -4 -33 -5 -33 -1 0 -3 -19 -4 -43 -2
-34 1 -42 16 -42 10 0 18 3 18 8 0 10 72 58 83 54 5 -1 6 2 2 7 -6 10 34 37
48 33 5 -1 6 2 3 7 -3 5 7 17 22 27 15 10 32 22 38 28 6 6 25 22 44 36 18 14
42 34 54 45 11 11 23 20 26 20 3 0 18 13 34 28 16 14 33 24 39 20 5 -3 7 -1 4
4 -4 6 7 21 25 34 17 13 39 31 48 39 10 8 27 22 37 30 73 58 142 119 164 144
51 57 108 196 104 253 -1 13 3 23 9 23 6 0 6 4 -1 11 -8 8 -8 20 -3 35 7 16 6
24 -1 24 -6 0 -9 9 -6 20 3 11 1 23 -4 26 -5 3 -7 9 -4 14 3 5 1 11 -5 15 -6
4 -8 11 -5 16 4 5 1 9 -5 9 -6 0 -9 4 -6 8 3 5 -6 25 -19 45 -14 20 -25 39
-25 43 0 9 -107 112 -149 144 -18 14 -45 36 -60 50 -15 14 -29 25 -31 25 -5 1
-30 21 -88 73 -20 17 -60 51 -89 75 -28 23 -57 53 -65 67 -7 14 -19 31 -25 38
-12 12 -17 36 -10 45 1 2 -4 11 -11 20 -16 19 -19 125 -5 152 6 11 11 22 11
25 -2 14 15 50 23 50 5 0 9 7 9 15 0 9 7 18 15 21 8 4 12 10 9 15 -3 5 2 9 10
9 9 0 15 4 13 9 -2 9 27 38 88 86 21 17 45 38 54 48 8 9 20 17 25 17 5 0 19
11 32 25 13 14 26 25 29 25 3 0 11 5 18 10 7 6 30 26 52 45 22 19 43 35 47 35
24 0 148 153 154 189 0 3 4 14 8 23 5 10 9 37 9 60 1 24 7 46 12 50 6 5 5 8
-3 8 -7 0 -10 5 -7 10 9 14 3 13 -25 -7z"/>
<path d="M1835 1939 c-21 -20 -62 -55 -94 -79 -18 -14 -40 -32 -49 -41 -10 -9
-42 -35 -74 -58 l-56 -42 23 -24 c12 -14 26 -25 30 -25 4 0 20 -12 34 -27 33
-35 41 -35 87 2 21 17 43 29 48 27 6 -2 8 -1 4 3 -4 4 4 19 18 33 13 15 24 32
24 39 0 7 4 13 8 13 5 0 9 6 10 13 0 6 3 23 7 37 3 14 8 51 10 83 4 56 -5 70
-30 46z"/>
<path d="M1280 1479 c-83 -69 -101 -86 -132 -128 -35 -47 -65 -112 -76 -166
-11 -50 -6 -205 7 -218 6 -6 11 -21 11 -34 0 -13 3 -23 8 -23 4 0 13 -13 20
-29 7 -16 21 -39 32 -51 10 -12 20 -25 22 -28 2 -4 29 -31 61 -60 l57 -54 61
53 c61 53 61 53 40 70 -11 10 -21 22 -21 29 0 6 -4 8 -10 5 -5 -3 -10 -1 -10
6 0 6 -8 19 -18 28 -11 9 -24 25 -30 37 -10 20 -9 20 59 19 38 -1 72 2 75 7 3
4 9 6 14 3 10 -6 19 40 10 55 -4 6 -22 13 -41 16 -19 3 -38 6 -44 8 -5 2 -19
0 -30 -4 -11 -4 -30 -3 -43 1 -15 6 -21 5 -17 -1 10 -17 -58 1 -79 20 -25 24
-14 67 19 80 35 13 168 11 177 -3 6 -9 8 -9 8 1 0 6 7 12 16 12 16 0 43 26 44
42 0 4 -7 14 -16 22 -12 12 -36 16 -100 16 l-85 0 17 33 c8 17 42 57 75 88 41
39 57 62 53 73 -3 9 -10 16 -14 16 -5 0 -15 6 -22 13 -8 6 -27 24 -44 39 l-29
27 -25 -20z"/>
<path d="M1664 557 c-6 -7 -32 -31 -57 -54 l-46 -41 24 -16 c13 -9 38 -29 55
-46 16 -16 30 -27 30 -24 0 5 147 -110 165 -130 24 -26 32 -14 29 42 -3 51 -9
92 -14 100 -2 1 -3 5 -4 10 -2 13 -70 112 -77 112 -3 0 -22 13 -40 30 -37 32
-48 35 -65 17z"/>
</g>
</svg>
