<?xml version="1.0" encoding="utf-8"?>
<!-- Generator: Adobe Illustrator 26.3.1, SVG Export Plug-In . SVG Version: 6.00 Build 0)  -->
<svg version="1.1" id="Layer_1" xmlns="http://www.w3.org/2000/svg" xmlns:xlink="http://www.w3.org/1999/xlink" x="0px" y="0px"
	 viewBox="0 0 36 35" style="enable-background:new 0 0 36 35;" xml:space="preserve">
<style type="text/css">
	.st0{fill:#A9A9A9;}
</style>
<path class="st0" d="M35.5,9c-1.3,0.5-2.6,0.9-4,1c1.5-0.8,2.5-2.1,3.1-3.7c-1.4,0.8-2.9,1.3-4.4,1.6c-0.7-0.7-1.4-1.2-2.3-1.6
	c-0.9-0.4-1.8-0.6-2.8-0.6c-3.9,0-7,3-7,6.7c0,0.5,0.1,1,0.2,1.5c-5.8-0.3-11-3-14.4-7c-0.6,1-1,2.2-0.9,3.4c0,2.3,1.2,4.4,3.1,5.6
	c-1.1,0-2.2-0.3-3.2-0.9v0.1c0,3.3,2.4,6,5.6,6.6c-0.6,0.1-1.2,0.2-1.8,0.2c-0.5,0-0.9,0-1.3-0.1c0.9,2.7,3.5,4.6,6.5,4.7
	c-2.4,1.8-5.4,2.9-8.7,2.9c-0.6,0-1.1,0-1.7-0.1c3.1,1.9,6.8,3,10.7,3C25,32.5,32,22.3,32,13.4c0-0.3,0-0.6,0-0.9
	C33.3,11.6,34.5,10.4,35.5,9z"/>
</svg>
